<?xml version="1.0" ?>
<svg xmlns="http://www.w3.org/2000/svg" width="73.0" height="90.0" viewBox="0 0 73.0 90.0">
<!--  <path d="M14,0L59,0C66.732,-0 73,6.268 73,14L73,76C73,83.732 66.732,90 59,90L14,90C6.268,90 0,83.732 0,76L0,14C0,6.268 6.268,-0 14,0Z" fill="#619f09ff" stroke-width="1.0" stroke="#00000000"/>-->
<!--  <path d="M14,0L59,0C66.732,0 73,6.268 73,14L73,72C73,79.732 66.732,86 59,86L14,86C6.268,86 0,79.732 0,72L0,14C0,6.268 6.268,0 14,0Z" fill="#7ac70cff" stroke-width="1.0" stroke="#00000000"/>-->
  <path d="M21,28L52,28L52,53.7986C52,55.4555 50.6569,56.7986 49,56.7986C48.6686,56.7986 48.3396,56.7437 48.0261,56.6362L36.5,52.6803L24.9739,56.6362C23.4067,57.174 21.7003,56.3396 21.1625,54.7725C21.0549,54.4591 21,54.13 21,53.7986L21,28Z" fill="#1cb0f6ff" stroke-width="1.0" stroke="#00000000"/>
  <path d="M44.3333,55.3688l-7.8333,-2.6884l-7.5,2.574l0,-15.2544l15.3333,0l0,15.3688z" fill="#1899d6ff" stroke-width="1.0" stroke="#00000000"/>
  <path d="M40.628,54.0971l-4.128,-1.4168l-3.872,1.3289l0,-12.0092l8,0z" fill="#80d7fcff" stroke-width="1.0" stroke="#00000000"/>
  <path d="M36,26m-18,0a18,18 0,1 1,36 0a18,18 0,1 1,-36 0" fill="#ffd900ff" stroke-width="1.0" stroke="#00000000"/>
  <path d="M20.2568,17.2734C15.4373,25.9681 18.5787,36.9236 27.2734,41.7432C35.9681,46.5627 46.9236,43.4213 51.7432,34.7266L51.7432,34.7266" fill="#ffc800ff" stroke-width="1.0" stroke="#00000000"/>
  <path d="M36,40C43.732,40 50,33.732 50,26C50,18.268 43.732,12 36,12C28.268,12 22,18.268 22,26C22,33.732 28.268,40 36,40ZM36,37C29.9249,37 25,32.0751 25,26C25,19.9249 29.9249,15 36,15C42.0751,15 47,19.9249 47,26C47,32.0751 42.0751,37 36,37Z" fill="#ffb100ff" stroke-width="1.0" stroke="#00000000"/>
<!--  <path d="M35.8787,15.2929L37.2929,13.8787A1,1 119.0546,0 1,38.7071 13.8787L40.1213,15.2929A1,1 0,0 1,40.1213 16.7071L38.7071,18.1213A1,1 84.4413,0 1,37.2929 18.1213L35.8787,16.7071A1,1 50.5944,0 1,35.8787 15.2929z" fill="#fff3cdff" stroke-width="1.0" stroke="#00000000"/>-->
<!--  <path d="M40.4645,20.2929L43.2929,17.4645A1,1 128.8023,0 1,44.7071 17.4645L47.5355,20.2929A1,1 81.9054,0 1,47.5355 21.7071L44.7071,24.5355A1,1 119.0546,0 1,43.2929 24.5355L40.4645,21.7071A1,1 0,0 1,40.4645 20.2929z" fill="#fff3cdff" stroke-width="1.0" stroke="#00000000"/>-->
</svg>
